<?xml version="1.0" encoding="utf-8"?>
<svg xmlns="http://www.w3.org/2000/svg" xmlns:xlink="http://www.w3.org/1999/xlink" width="1024"
    height="1024" viewBox="0 0 1024 1024">
    <path fill="white" transform="scale(8 8)" d="M0 0L128 0L128 128L0 128L0 0Z" />
    <path fill="#398BD1" transform="scale(8 8)"
        d="M40.229 26.1113C47.4508 25.8401 55.0918 25.7835 62.3008 26.1488C63.1477 26.1918 65.6223 26.2576 66.146 26.8675C67.2708 28.1775 66.858 33.5696 66.7454 35.2947C66.6902 36.1412 66.6034 37.5695 65.815 38.0935C63.0489 39.932 41.9598 36.8161 38.5549 39.8016C38.0657 40.8225 37.9703 42.0201 37.8874 43.1369C37.6383 46.4939 37.3728 65.3154 38.0438 67.6686C38.254 68.4061 38.6816 69.0078 39.3668 69.3748C42.3366 70.9655 52.3237 70.3047 55.6717 69.2663C56.0191 66.3777 55.867 63.435 55.7592 60.5357C53.4334 60.2749 51.0364 60.4899 48.7424 60.1329C47.9869 60.0153 47.09 59.7653 46.6287 59.1078C45.3763 57.3229 46.2134 51.7476 46.5798 49.5949C51.7588 49.2475 57.0059 49.3891 62.1954 49.3888C65.1067 49.3771 68.2846 49.1759 71.1397 49.7595C71.7268 53.1609 72.001 77.5148 70.8766 79.7476C68.4017 81.7397 48.6244 82.1963 44.2998 82.4233C38.1488 82.7461 31.0641 83.0137 26.1892 78.5969C23.2788 75.96 22.5051 71.302 22.3131 67.5611C22.0534 62.5017 22.2288 57.3508 22.2323 52.2793C22.2357 47.5548 21.8663 42.5266 22.6773 37.8673C23.0917 35.4865 23.9904 32.5151 25.6495 30.7064C29.4422 26.5718 35.027 26.3484 40.229 26.1113Z" />
    <path fill="#090" transform="scale(8 8)"
        d="M93.5891 42.1151C100.186 42.0985 113.738 41.4227 119.691 42.6461C120.376 46.1703 120.17 50.6361 119.726 54.1999C114.543 55.1179 94.9333 53.344 92.2157 55.946C91.5118 56.6199 91.4668 57.6486 91.4316 58.5605C91.3798 59.9035 91.3458 61.3268 92.3348 62.3673C94.6754 64.83 105.368 63.7789 108.997 63.8404C113.248 63.9125 117.54 64.5935 120.632 67.8237C124.184 71.5358 124.456 76.5724 124.374 81.4077C124.293 86.1235 124.077 90.9324 120.427 94.4267C115.389 99.2499 108.343 98.6152 101.925 98.4847C98.021 98.1899 79.5688 97.8488 77.3444 96.3506C75.9344 93.8071 76.4537 87.8102 77.0561 84.9612C79.518 84.8239 82.0362 85.0571 84.5002 85.1422C88.843 85.264 93.184 85.4393 97.5224 85.6681C100.487 85.8402 103.439 86.1503 106.41 85.9619C107.177 85.4954 107.909 84.9551 108.648 84.4438C108.796 81.9781 108.723 79.5091 108.678 77.0412C105.385 76.9245 102.089 76.8736 98.7927 76.8886C92.879 76.8844 85.1011 77.5962 80.3874 73.2897C77.0904 70.2775 75.9949 65.5253 75.816 61.226C75.6057 56.1726 76.1431 50.2611 79.7506 46.3869C83.3848 42.4841 88.6381 42.3052 93.5891 42.1151Z" />
    <path fill="#363535" transform="scale(8 8)"
        d="M4.76377 70.366C4.85612 70.3552 4.94859 70.3455 5.04117 70.3369C6.8828 70.1653 11.7597 69.6302 13.2431 70.8537C14.1368 72.3917 14.0346 74.9005 13.9033 76.6485C13.8176 77.7895 13.8095 79.0583 12.8798 79.8562C11.2396 80.2453 9.40569 80.3118 7.72332 80.2999C6.65268 80.2924 5.18031 80.2612 4.38048 79.4488C3.62588 78.0964 3.6071 76.3591 3.63853 74.841C3.66892 73.3729 3.67035 71.4156 4.76377 70.366Z" />
</svg>